<mxfile host="app.diagrams.net" modified="2023-08-22T08:03:22.306Z" agent="Mozilla/5.0 (Windows NT 10.0; Win64; x64) AppleWebKit/537.36 (KHTML, like Gecko) Chrome/116.0.0.0 Safari/537.36" etag="yRlcBDgYF47VxJdSfwz0" version="21.6.8" type="github">
  <diagram name="第 1 页" id="w9yInHoCC88sWFReL27I">
    <mxGraphModel dx="1781" dy="570" grid="1" gridSize="10" guides="1" tooltips="1" connect="1" arrows="1" fold="1" page="1" pageScale="1" pageWidth="827" pageHeight="1169" math="0" shadow="0">
      <root>
        <mxCell id="0" />
        <mxCell id="1" parent="0" />
        <mxCell id="weBLixOAtfJSAftt8ouB-12" style="edgeStyle=orthogonalEdgeStyle;rounded=0;orthogonalLoop=1;jettySize=auto;html=1;exitX=0.5;exitY=1;exitDx=0;exitDy=0;" parent="1" source="weBLixOAtfJSAftt8ouB-1" target="weBLixOAtfJSAftt8ouB-4" edge="1">
          <mxGeometry relative="1" as="geometry" />
        </mxCell>
        <mxCell id="weBLixOAtfJSAftt8ouB-1" value="serviceA" style="rounded=1;whiteSpace=wrap;html=1;fillColor=#f5f5f5;fontColor=#333333;strokeColor=#666666;" parent="1" vertex="1">
          <mxGeometry x="110" y="130" width="120" height="60" as="geometry" />
        </mxCell>
        <mxCell id="weBLixOAtfJSAftt8ouB-13" style="edgeStyle=orthogonalEdgeStyle;rounded=0;orthogonalLoop=1;jettySize=auto;html=1;exitX=0.5;exitY=1;exitDx=0;exitDy=0;" parent="1" source="weBLixOAtfJSAftt8ouB-2" edge="1">
          <mxGeometry relative="1" as="geometry">
            <mxPoint x="354" y="250" as="targetPoint" />
          </mxGeometry>
        </mxCell>
        <mxCell id="weBLixOAtfJSAftt8ouB-2" value="serviceB" style="rounded=1;whiteSpace=wrap;html=1;fillColor=#f5f5f5;fontColor=#333333;strokeColor=#666666;" parent="1" vertex="1">
          <mxGeometry x="294" y="130" width="120" height="60" as="geometry" />
        </mxCell>
        <mxCell id="weBLixOAtfJSAftt8ouB-14" style="edgeStyle=orthogonalEdgeStyle;rounded=0;orthogonalLoop=1;jettySize=auto;html=1;exitX=0.5;exitY=1;exitDx=0;exitDy=0;entryX=0.5;entryY=0;entryDx=0;entryDy=0;" parent="1" source="weBLixOAtfJSAftt8ouB-3" target="weBLixOAtfJSAftt8ouB-4" edge="1">
          <mxGeometry relative="1" as="geometry" />
        </mxCell>
        <mxCell id="weBLixOAtfJSAftt8ouB-3" value="serviceC" style="rounded=1;whiteSpace=wrap;html=1;fillColor=#f5f5f5;fontColor=#333333;strokeColor=#666666;" parent="1" vertex="1">
          <mxGeometry x="470" y="130" width="120" height="60" as="geometry" />
        </mxCell>
        <mxCell id="weBLixOAtfJSAftt8ouB-23" style="edgeStyle=orthogonalEdgeStyle;rounded=0;orthogonalLoop=1;jettySize=auto;html=1;exitX=0.5;exitY=1;exitDx=0;exitDy=0;entryX=0.5;entryY=0;entryDx=0;entryDy=0;" parent="1" source="weBLixOAtfJSAftt8ouB-4" target="weBLixOAtfJSAftt8ouB-20" edge="1">
          <mxGeometry relative="1" as="geometry" />
        </mxCell>
        <mxCell id="weBLixOAtfJSAftt8ouB-4" value="监测预警平台" style="rounded=1;whiteSpace=wrap;html=1;fillColor=#f0a30a;fontColor=#000000;strokeColor=#BD7000;" parent="1" vertex="1">
          <mxGeometry x="147" y="250" width="414" height="60" as="geometry" />
        </mxCell>
        <mxCell id="weBLixOAtfJSAftt8ouB-7" value="1.&amp;nbsp;监测服务&lt;br&gt;2.&amp;nbsp;预警方式（MQ、MQTT、API）&lt;br&gt;3.&amp;nbsp;预警上报（TOPIC、URL（GET、POST））&lt;br&gt;4.&amp;nbsp;预警规则&lt;br&gt;5.&amp;nbsp;通知方式&lt;br&gt;6.&amp;nbsp;数据存储&lt;br&gt;7.&amp;nbsp;预警启停&amp;nbsp;" style="rounded=0;whiteSpace=wrap;html=1;align=left;fillColor=#dae8fc;strokeColor=#6c8ebf;gradientColor=#7ea6e0;" parent="1" vertex="1">
          <mxGeometry x="-190" y="420" width="280" height="145" as="geometry" />
        </mxCell>
        <mxCell id="weBLixOAtfJSAftt8ouB-20" value="" style="rounded=0;whiteSpace=wrap;html=1;align=left;" parent="1" vertex="1">
          <mxGeometry x="116.5" y="380" width="475" height="210" as="geometry" />
        </mxCell>
        <mxCell id="weBLixOAtfJSAftt8ouB-32" style="edgeStyle=orthogonalEdgeStyle;rounded=0;orthogonalLoop=1;jettySize=auto;html=1;entryX=1;entryY=0.25;entryDx=0;entryDy=0;" parent="1" source="weBLixOAtfJSAftt8ouB-24" target="weBLixOAtfJSAftt8ouB-7" edge="1">
          <mxGeometry relative="1" as="geometry" />
        </mxCell>
        <mxCell id="weBLixOAtfJSAftt8ouB-24" value="监测配置" style="rounded=1;whiteSpace=wrap;html=1;fillColor=#dae8fc;strokeColor=#6c8ebf;" parent="1" vertex="1">
          <mxGeometry x="131.5" y="400" width="120" height="60" as="geometry" />
        </mxCell>
        <mxCell id="weBLixOAtfJSAftt8ouB-25" value="监测查询" style="rounded=1;whiteSpace=wrap;html=1;fillColor=#f5f5f5;fontColor=#333333;strokeColor=#666666;" parent="1" vertex="1">
          <mxGeometry x="285.5" y="400" width="120" height="60" as="geometry" />
        </mxCell>
        <mxCell id="weBLixOAtfJSAftt8ouB-26" value="监测分析" style="rounded=1;whiteSpace=wrap;html=1;fillColor=#d5e8d4;strokeColor=#82b366;" parent="1" vertex="1">
          <mxGeometry x="441.5" y="400" width="120" height="60" as="geometry" />
        </mxCell>
        <mxCell id="weBLixOAtfJSAftt8ouB-31" style="edgeStyle=orthogonalEdgeStyle;rounded=0;orthogonalLoop=1;jettySize=auto;html=1;entryX=1;entryY=0.5;entryDx=0;entryDy=0;" parent="1" source="weBLixOAtfJSAftt8ouB-28" target="weBLixOAtfJSAftt8ouB-7" edge="1">
          <mxGeometry relative="1" as="geometry" />
        </mxCell>
        <mxCell id="weBLixOAtfJSAftt8ouB-28" value="预警配置" style="rounded=1;whiteSpace=wrap;html=1;fillColor=#dae8fc;strokeColor=#6c8ebf;" parent="1" vertex="1">
          <mxGeometry x="131.5" y="490" width="120" height="60" as="geometry" />
        </mxCell>
        <mxCell id="weBLixOAtfJSAftt8ouB-29" value="预警查询" style="rounded=1;whiteSpace=wrap;html=1;fillColor=#f5f5f5;fontColor=#333333;strokeColor=#666666;" parent="1" vertex="1">
          <mxGeometry x="285.5" y="490" width="120" height="60" as="geometry" />
        </mxCell>
        <mxCell id="weBLixOAtfJSAftt8ouB-30" value="预警分析" style="rounded=1;whiteSpace=wrap;html=1;fillColor=#d5e8d4;strokeColor=#82b366;" parent="1" vertex="1">
          <mxGeometry x="441.5" y="490" width="120" height="60" as="geometry" />
        </mxCell>
      </root>
    </mxGraphModel>
  </diagram>
</mxfile>
